# xmcd
# Track frame offsets:
# 182
# 16740
# 27310
# 38255
# 49625
# 58777
# 70552
# 83610
# 94097
# 104315
# 115405
# 128002
# 142347
# 154580
# 163497
# 178110
#
# Disc length: 2503 seconds
# Revision: 0
# Processed by: cddbd v1.4PL0 Copyright (c) Steve Scherf et al.
# Submitted via: VisiTrax 2.9.5.181 - For more info visit www.synapsa.com
#
DISCID=cc09c510
DTITLE=Various Artist - The Sullivan Years
DYEAR=1900
DGENRE=
TTITLE0=Loretta Lynn - Coal Miner's Daughter
TTITLE1=Loretta Lynn - I Wanna Be Free
TTITLE2=Loretta Lynn - You Ain't Woman Enough
TTITLE3=Roy Clark - Thank God and Greyhound
TTITLE4=Roy Clark - Foggy Mountain breakdown
TTITLE5=Sonny James - A World Of Our Own
TTITLE6=Sonny James - My Love
TTITLE7=Sonny James - Endlessly
TTITLE8=Sonny James - Tennessee Waltz
TTITLE9=Johnny Cash - Don't Take Your Guns To Town
TTITLE10=Gene Autry - Your Cheatin' Heart
TTITLE11=Jimmy Wakely - New San Antonio Rose
TTITLE12=Hank Williams Jr. - All For The Love Of sunshine
TTITLE13=Buck Owens and his Buckaroos - Tall Dark Stranger
TTITLE14=Buck Owens and his Buckaroos - Big In Vegas
TTITLE15=Buck Owens and his Buckaroos - Heartbreak Mountain
EXTD=
EXTT0=
EXTT1=
EXTT2=
EXTT3=
EXTT4=
EXTT5=
EXTT6=
EXTT7=
EXTT8=
EXTT9=
EXTT10=
EXTT11=
EXTT12=
EXTT13=
EXTT14=
EXTT15=
PLAYORDER=
